# xmcd CD database file
#
# Track frame offsets:
#	150
#	18425
#	33938
#	55740
#	71975
#	88763
#	106063
#	123950
#	140638
#	158813
#	176633
#	182695
#	204875
#	223400
#	242643
#	264491
#	286678
#	306368
#
# Disc length: 4391 seconds
#
# Revision: 0
# Processed by: cddbd v1.5PL3 Copyright (c) Steve Scherf et al.
# Submitted via: CDex 1.51
#
DISCID=03112512
DTITLE=Shakatak - Niteflite
DYEAR=1989
DGENRE=Jazz
TTITLE0=Nights Over Tokyo
TTITLE1=Runaway Bay
TTITLE2=Quiet Storm
TTITLE3=Jazz Creepin'
TTITLE4=Madina
TTITLE5=Open Your Eyes
TTITLE6=Danceland
TTITLE7=Sunshiny Day
TTITLE8=Blue Note
TTITLE9=Midnight Walkin'
TTITLE10=Prelude
TTITLE11=Nocturne
TTITLE12=Deadline
TTITLE13=Twilight Time
TTITLE14=Dreamtime
TTITLE15=After Midnight
TTITLE16=Conquistador
TTITLE17=Just The Way We Are
EXTD=YEAR: 1989
EXTT0=
EXTT1=
EXTT2=
EXTT3=
EXTT4=
EXTT5=
EXTT6=
EXTT7=
EXTT8=
EXTT9=
EXTT10=
EXTT11=
EXTT12=
EXTT13=
EXTT14=
EXTT15=
EXTT16=
EXTT17=
PLAYORDER=
